<svg width="1024" height="1024" viewBox="0 0 1024 1024" fill="none" xmlns="http://www.w3.org/2000/svg">
<g clip-path="url(#clip0_1_2)">
<rect width="1024" height="1024" rx="512" fill="#282C34"/>
<path d="M709.341 -80.1467C871.716 -151.817 1166.02 -80.1468 1502.95 -80.1468C1508.36 74.0251 1518.38 386.428 1515.13 402.666C1511.88 418.903 416.389 455.438 -130.951 471.675L-149.219 -80.1466C-1.05104 -80.1466 493.128 15.286 709.341 -80.1467Z" fill="#5F6777"/>
<path d="M725.578 143.119C887.954 71.4495 1182.26 143.119 1519.19 143.119C1524.6 297.291 1534.61 609.694 1531.37 625.932C1528.12 642.169 432.626 678.704 -114.714 694.941L-132.981 143.119C15.1865 143.119 509.366 238.552 725.578 143.119Z" fill="#515865"/>
<path d="M648.45 394.022C810.674 463.653 1105.13 394.022 1442.06 394.022C1447.47 548.194 1457.49 860.597 1454.24 876.835C1450.99 893.072 355.498 929.607 -191.842 945.844L-210.109 394.022C-100.506 250.062 431.273 300.805 648.45 394.022Z" fill="#414751"/>
<path d="M668.747 540.16C835.182 481.299 1172.11 353.428 1462.36 540.16C1467.77 694.332 1477.78 1006.74 1474.53 1022.97C1471.29 1039.21 375.795 1075.74 -171.545 1091.98L-189.812 540.16C-110.654 666.001 480.771 606.639 668.747 540.16Z" fill="#31353D"/>
<path d="M587.559 825.971C751.964 805.42 1090.92 639.239 1381.17 825.971C1386.58 980.143 1396.59 1292.55 1393.35 1308.78C1390.1 1325.02 294.607 1361.56 -252.733 1377.79L-271 825.971C-110.654 657.253 423.154 846.522 587.559 825.971Z" fill="#282C34"/>
<path d="M386.538 431.63C384.27 427.262 381.12 423.986 377.088 421.802C373.056 419.534 368.394 418.4 363.102 418.4C357.306 418.4 352.14 419.702 347.604 422.306C343.068 424.91 339.498 428.606 336.894 433.394C334.374 438.182 333.114 443.726 333.114 450.026C333.114 456.326 334.374 461.912 336.894 466.784C339.498 471.572 343.068 475.268 347.604 477.872C352.14 480.476 357.306 481.778 363.102 481.778C370.914 481.778 377.256 479.594 382.128 475.226C387 470.858 389.982 464.936 391.074 457.46H358.188V445.994H406.446V457.208C405.522 464.012 403.086 470.27 399.138 475.982C395.274 481.694 390.192 486.272 383.892 489.716C377.676 493.076 370.746 494.756 363.102 494.756C354.87 494.756 347.352 492.866 340.548 489.086C333.744 485.222 328.326 479.888 324.294 473.084C320.346 466.28 318.372 458.594 318.372 450.026C318.372 441.458 320.346 433.772 324.294 426.968C328.326 420.164 333.744 414.872 340.548 411.092C347.436 407.228 354.954 405.296 363.102 405.296C372.426 405.296 380.7 407.606 387.924 412.226C395.232 416.762 400.524 423.23 403.8 431.63H386.538ZM450.727 495.134C444.175 495.134 438.253 493.664 432.961 490.724C427.669 487.7 423.511 483.5 420.487 478.124C417.463 472.664 415.951 466.364 415.951 459.224C415.951 452.168 417.505 445.91 420.613 440.45C423.721 434.99 427.963 430.79 433.339 427.85C438.715 424.91 444.721 423.44 451.357 423.44C457.993 423.44 463.999 424.91 469.375 427.85C474.751 430.79 478.993 434.99 482.101 440.45C485.209 445.91 486.763 452.168 486.763 459.224C486.763 466.28 485.167 472.538 481.975 477.998C478.783 483.458 474.415 487.7 468.871 490.724C463.411 493.664 457.363 495.134 450.727 495.134ZM450.727 482.66C454.423 482.66 457.867 481.778 461.059 480.014C464.335 478.25 466.981 475.604 468.997 472.076C471.013 468.548 472.021 464.264 472.021 459.224C472.021 454.184 471.055 449.942 469.123 446.498C467.191 442.97 464.629 440.324 461.437 438.56C458.245 436.796 454.801 435.914 451.105 435.914C447.409 435.914 443.965 436.796 440.773 438.56C437.665 440.324 435.187 442.97 433.339 446.498C431.491 449.942 430.567 454.184 430.567 459.224C430.567 466.7 432.457 472.496 436.237 476.612C440.101 480.644 444.931 482.66 450.727 482.66ZM541.157 450.278L568.373 494H552.245L532.463 462.248L513.941 494H497.939L525.155 450.278L497.813 406.43H513.941L533.849 438.434L552.497 406.43H568.499L541.157 450.278ZM598.506 482.408H628.116V494H584.142V406.43H598.506V482.408ZM685.615 494L665.455 458.972H654.493V494H640.129V406.43H670.369C677.089 406.43 682.759 407.606 687.379 409.958C692.083 412.31 695.569 415.46 697.837 419.408C700.189 423.356 701.365 427.766 701.365 432.638C701.365 438.35 699.685 443.558 696.325 448.262C693.049 452.882 687.967 456.032 681.079 457.712L702.751 494H685.615ZM654.493 447.506H670.369C675.745 447.506 679.777 446.162 682.465 443.474C685.237 440.786 686.623 437.174 686.623 432.638C686.623 428.102 685.279 424.574 682.591 422.054C679.903 419.45 675.829 418.148 670.369 418.148H654.493V447.506ZM335.719 531.43V619H321.355V559.024L294.643 619H284.689L257.851 559.024V619H243.487V531.43H258.985L289.729 600.1L320.347 531.43H335.719ZM361.906 540.376C359.302 540.376 357.118 539.494 355.354 537.73C353.59 535.966 352.708 533.782 352.708 531.178C352.708 528.574 353.59 526.39 355.354 524.626C357.118 522.862 359.302 521.98 361.906 521.98C364.426 521.98 366.568 522.862 368.332 524.626C370.096 526.39 370.978 528.574 370.978 531.178C370.978 533.782 370.096 535.966 368.332 537.73C366.568 539.494 364.426 540.376 361.906 540.376ZM368.962 549.574V619H354.598V549.574H368.962ZM383.033 584.224C383.033 577.084 384.461 570.826 387.317 565.45C390.257 559.99 394.289 555.79 399.413 552.85C404.537 549.91 410.417 548.44 417.053 548.44C425.453 548.44 432.383 550.456 437.843 554.488C443.387 558.436 447.125 564.106 449.057 571.498H433.559C432.299 568.054 430.283 565.366 427.511 563.434C424.739 561.502 421.253 560.536 417.053 560.536C411.173 560.536 406.469 562.636 402.941 566.836C399.497 570.952 397.775 576.748 397.775 584.224C397.775 591.7 399.497 597.538 402.941 601.738C406.469 605.938 411.173 608.038 417.053 608.038C425.369 608.038 430.871 604.384 433.559 597.076H449.057C447.041 604.132 443.261 609.76 437.717 613.96C432.173 618.076 425.285 620.134 417.053 620.134C410.417 620.134 404.537 618.664 399.413 615.724C394.289 612.7 390.257 608.5 387.317 603.124C384.461 597.664 383.033 591.364 383.033 584.224ZM510.466 607.408H540.076V619H496.102V531.43H510.466V607.408ZM559.397 540.376C556.793 540.376 554.609 539.494 552.845 537.73C551.081 535.966 550.199 533.782 550.199 531.178C550.199 528.574 551.081 526.39 552.845 524.626C554.609 522.862 556.793 521.98 559.397 521.98C561.917 521.98 564.059 522.862 565.823 524.626C567.587 526.39 568.469 528.574 568.469 531.178C568.469 533.782 567.587 535.966 565.823 537.73C564.059 539.494 561.917 540.376 559.397 540.376ZM566.453 549.574V619H552.089V549.574H566.453ZM613.283 548.44C618.659 548.44 623.405 549.532 627.521 551.716C631.721 553.816 634.997 556.462 637.349 559.654V549.574H651.839V620.134C651.839 626.518 650.495 632.188 647.807 637.144C645.119 642.184 641.213 646.132 636.089 648.988C631.049 651.844 625.001 653.272 617.945 653.272C608.537 653.272 600.725 651.046 594.509 646.594C588.293 642.226 584.765 636.262 583.925 628.702H598.163C599.255 632.314 601.565 635.212 605.093 637.396C608.705 639.664 612.989 640.798 617.945 640.798C623.741 640.798 628.403 639.034 631.931 635.506C635.543 631.978 637.349 626.854 637.349 620.134V608.542C634.913 611.818 631.595 614.59 627.395 616.858C623.279 619.042 618.575 620.134 613.283 620.134C607.235 620.134 601.691 618.622 596.651 615.598C591.695 612.49 587.747 608.206 584.807 602.746C581.951 597.202 580.523 590.944 580.523 583.972C580.523 577 581.951 570.826 584.807 565.45C587.747 560.074 591.695 555.916 596.651 552.976C601.691 549.952 607.235 548.44 613.283 548.44ZM637.349 584.224C637.349 579.436 636.341 575.278 634.325 571.75C632.393 568.222 629.831 565.534 626.639 563.686C623.447 561.838 620.003 560.914 616.307 560.914C612.611 560.914 609.167 561.838 605.975 563.686C602.783 565.45 600.179 568.096 598.163 571.624C596.231 575.068 595.265 579.184 595.265 583.972C595.265 588.76 596.231 592.96 598.163 596.572C600.179 600.184 602.783 602.956 605.975 604.888C609.251 606.736 612.695 607.66 616.307 607.66C620.003 607.66 623.447 606.736 626.639 604.888C629.831 603.04 632.393 600.352 634.325 596.824C636.341 593.212 637.349 589.012 637.349 584.224ZM706.616 548.44C711.908 548.44 716.612 549.574 720.728 551.842C724.928 554.11 728.204 557.47 730.556 561.922C732.992 566.374 734.21 571.75 734.21 578.05V619H719.972V580.192C719.972 573.976 718.418 569.23 715.31 565.954C712.202 562.594 707.96 560.914 702.584 560.914C697.208 560.914 692.924 562.594 689.732 565.954C686.624 569.23 685.07 573.976 685.07 580.192V619H670.706V525.76H685.07V557.638C687.506 554.698 690.572 552.43 694.268 550.834C698.048 549.238 702.164 548.44 706.616 548.44ZM769.29 561.292V599.722C769.29 602.326 769.878 604.216 771.054 605.392C772.314 606.484 774.414 607.03 777.354 607.03H786.174V619H774.834C768.366 619 763.41 617.488 759.966 614.464C756.522 611.44 754.8 606.526 754.8 599.722V561.292H746.61V549.574H754.8V532.312H769.29V549.574H786.174V561.292H769.29Z" fill="white"/>
</g>
<defs>
<clipPath id="clip0_1_2">
<rect width="1024" height="1024" rx="512" fill="white"/>
</clipPath>
</defs>
</svg>
